<svg width="13" height="12" viewBox="0 0 13 12" fill="none" xmlns="http://www.w3.org/2000/svg">
<path fill-rule="evenodd" clip-rule="evenodd" d="M11.2929 11.7071L6.29289 6.70711C5.90237 6.31658 5.90237 5.68342 6.29289 5.29289L11.2929 0.292893C11.6834 -0.0976311 12.3166 -0.0976311 12.7071 0.292893C13.0976 0.683417 13.0976 1.31658 12.7071 1.70711L8.41421 6L12.7071 10.2929C13.0976 10.6834 13.0976 11.3166 12.7071 11.7071C12.3166 12.0976 11.6834 12.0976 11.2929 11.7071ZM5.29289 11.7071L0.292893 6.70711C-0.0976315 6.31658 -0.0976315 5.68342 0.292893 5.29289L5.29289 0.292893C5.68342 -0.0976311 6.31658 -0.0976311 6.70711 0.292893C7.09763 0.683417 7.09763 1.31658 6.70711 1.70711L2.41421 6L6.70711 10.2929C7.09763 10.6834 7.09763 11.3166 6.70711 11.7071C6.31658 12.0976 5.68342 12.0976 5.29289 11.7071Z" fill="currentColor" />
</svg>
