<svg width="40" height="40" viewBox="0 0 40 40" fill="none" xmlns="http://www.w3.org/2000/svg">
<path fill-rule="evenodd" clip-rule="evenodd" d="M20.0001 2.36655C10.2615 2.36655 2.3668 10.2613 2.3668 19.9999C2.3668 29.7385 10.2615 37.6332 20.0001 37.6332C29.7388 37.6332 37.6335 29.7385 37.6335 19.9999C37.6335 10.2613 29.7388 2.36655 20.0001 2.36655ZM0.966797 19.9999C0.966797 9.48807 9.48831 0.966553 20.0001 0.966553C30.5119 0.966553 39.0335 9.48807 39.0335 19.9999C39.0335 30.5117 30.5119 39.0332 20.0001 39.0332C9.48831 39.0332 0.966797 30.5117 0.966797 19.9999ZM20.0001 24.3666C18.0933 24.3666 16.3355 24.9963 14.9206 26.0595C14.6116 26.2917 14.1728 26.2295 13.9405 25.9204C13.7083 25.6113 13.7705 25.1725 14.0796 24.9403C15.7286 23.7011 17.7796 22.9666 20.0001 22.9666C22.2206 22.9666 24.2716 23.7011 25.9206 24.9403C26.2297 25.1725 26.292 25.6113 26.0597 25.9204C25.8275 26.2295 25.3887 26.2917 25.0796 26.0595C23.6647 24.9963 21.907 24.3666 20.0001 24.3666ZM15.2001 14.4999C15.2001 14.1133 14.8867 13.7999 14.5001 13.7999C14.1135 13.7999 13.8001 14.1133 13.8001 14.4999V18.1666C13.8001 18.5532 14.1135 18.8666 14.5001 18.8666C14.8867 18.8666 15.2001 18.5532 15.2001 18.1666V14.4999ZM26.2001 14.4999C26.2001 14.1133 25.8867 13.7999 25.5001 13.7999C25.1135 13.7999 24.8001 14.1133 24.8001 14.4999V18.1666C24.8001 18.5532 25.1135 18.8666 25.5001 18.8666C25.8867 18.8666 26.2001 18.5532 26.2001 18.1666V14.4999Z" fill="currentColor"/>
</svg>
