<svg width="14" height="14" viewBox="0 0 14 14" fill="none" xmlns="http://www.w3.org/2000/svg">
<path fill-rule="evenodd" clip-rule="evenodd" d="M0.292893 12.2934C-0.0976311 12.684 -0.0976311 13.3171 0.292893 13.7077C0.683417 14.0982 1.31658 14.0982 1.70711 13.7077L7.00058 8.41418L12.2958 13.7094C12.6863 14.0999 13.3195 14.0999 13.71 13.7094C14.1005 13.3189 14.1005 12.6857 13.71 12.2952L8.41479 6.99997L13.7077 1.70711C14.0982 1.31658 14.0982 0.683418 13.7077 0.292894C13.3171 -0.0976312 12.684 -0.0976312 12.2934 0.292894L7.00058 5.58576L1.70947 0.294649C1.31895 -0.0958749 0.685784 -0.0958749 0.295259 0.294649C-0.095265 0.685174 -0.095265 1.31834 0.295259 1.70886L5.58637 6.99997L0.292893 12.2934Z" fill="currentColor"/>
</svg>
