<svg width="36" height="36" viewBox="0 0 36 36" fill="none" xmlns="http://www.w3.org/2000/svg">
<rect width="36" height="36" rx="18" fill="#EAF6FF"/>
<path fill-rule="evenodd" clip-rule="evenodd" d="M23.0593 11.6909C22.1061 10.7377 20.5606 10.7377 19.6074 11.6909L12.7324 18.5659C11.2038 20.0944 11.2038 22.5727 12.7324 24.1012C14.2609 25.6297 16.7391 25.6297 18.2677 24.1012L24.101 18.2679C24.4134 17.9554 24.9199 17.9554 25.2324 18.2679C25.5448 18.5803 25.5448 19.0868 25.2324 19.3992L19.399 25.2326C17.2457 27.3859 13.7544 27.3859 11.601 25.2326C9.44762 23.0792 9.44762 19.5879 11.601 17.4345L18.476 10.5595C20.0541 8.98146 22.6126 8.98146 24.1907 10.5595C25.7688 12.1376 25.7688 14.6962 24.1907 16.2742L18.149 22.3159C17.1463 23.3187 15.5204 23.3187 14.5177 22.3159C13.5149 21.3131 13.5149 19.6873 14.5177 18.6845L19.5177 13.6845C19.8301 13.3721 20.3366 13.3721 20.649 13.6845C20.9614 13.997 20.9614 14.5035 20.649 14.8159L15.649 19.8159C15.2711 20.1938 15.2711 20.8066 15.649 21.1845C16.027 21.5625 16.6397 21.5625 17.0177 21.1845L23.0593 15.1429C24.0126 14.1896 24.0126 12.6441 23.0593 11.6909Z" fill="#1D8DE1"/>
</svg>
