<svg width="24" height="24" viewBox="0 0 24 24" fill="none" xmlns="http://www.w3.org/2000/svg">
<path fill-rule="evenodd" clip-rule="evenodd" d="M10.8001 3.99995C10.8001 3.33721 11.3373 2.79995 12.0001 2.79995C12.6628 2.79995 13.2001 3.33721 13.2001 3.99995C13.2001 4.44178 13.5582 4.79995 14.0001 4.79995H15.0001C15.1105 4.79995 15.2001 4.88949 15.2001 4.99995V6.19995H8.80007V4.99995C8.80007 4.88949 8.88962 4.79995 9.00007 4.79995H10.0001C10.4419 4.79995 10.8001 4.44178 10.8001 3.99995ZM16.8001 6.99995V5.79995H18.0001C18.6628 5.79995 19.2001 6.33721 19.2001 6.99995V20C19.2001 20.6627 18.6628 21.2 18.0001 21.2H6.00007C5.33733 21.2 4.80007 20.6627 4.80007 20V6.99995C4.80007 6.33721 5.33733 5.79995 6.00007 5.79995H7.20007V6.99995C7.20007 7.44178 7.55825 7.79995 8.00007 7.79995H16.0001C16.4419 7.79995 16.8001 7.44178 16.8001 6.99995ZM6.00007 4.19995H7.38718C7.68172 3.60726 8.29333 3.19995 9.00007 3.19995H9.31602C9.66024 2.04336 10.7317 1.19995 12.0001 1.19995C13.2685 1.19995 14.3399 2.04336 14.6841 3.19995H15.0001C15.7068 3.19995 16.3184 3.60726 16.613 4.19995H18.0001C19.5465 4.19995 20.8001 5.45355 20.8001 6.99995V20C20.8001 21.5463 19.5465 22.7999 18.0001 22.7999H6.00007C4.45368 22.7999 3.20007 21.5463 3.20007 20V6.99995C3.20007 5.45355 4.45368 4.19995 6.00007 4.19995ZM8.00007 10.2001C7.55825 10.2001 7.20007 10.5582 7.20007 11.0001C7.20007 11.4419 7.55825 11.8001 8.00007 11.8001H16.0001C16.4419 11.8001 16.8001 11.4419 16.8001 11.0001C16.8001 10.5582 16.4419 10.2001 16.0001 10.2001H8.00007ZM8.00007 13.2C7.55825 13.2 7.20007 13.5581 7.20007 14C7.20007 14.4418 7.55825 14.8 8.00007 14.8H16.0001C16.4419 14.8 16.8001 14.4418 16.8001 14C16.8001 13.5581 16.4419 13.2 16.0001 13.2H8.00007ZM8.00007 16.2C7.55825 16.2 7.20007 16.5581 7.20007 17C7.20007 17.4418 7.55825 17.8 8.00007 17.8H13.0001C13.4419 17.8 13.8001 17.4418 13.8001 17C13.8001 16.5581 13.4419 16.2 13.0001 16.2H8.00007Z" fill="currentColor"/>
</svg>
