<svg width="17" height="18" viewBox="0 0 17 18" fill="none" xmlns="http://www.w3.org/2000/svg">
<path fill-rule="evenodd" clip-rule="evenodd" d="M10.8201 1.345C11.9136 0.251536 13.6864 0.251535 14.7799 1.345L15.9515 2.51658C17.0449 3.61004 17.0449 5.38291 15.9515 6.47637L13.8657 8.56216L5.36569 17.0622C5.21566 17.2122 5.01217 17.2965 4.8 17.2965H0.8C0.358172 17.2965 0 16.9383 0 16.4965V12.4965C0 12.2843 0.0842855 12.0808 0.234315 11.9308L8.73431 3.43079L10.8201 1.345ZM13.6485 2.47637C13.1799 2.00775 12.4201 2.00775 11.9515 2.47637L10.4314 3.99648L13.3 6.86511L14.8201 5.345C15.2887 4.87638 15.2887 4.11658 14.8201 3.64795L13.6485 2.47637ZM12.1686 7.99648L9.3 5.12785L1.6 12.8278V15.6965H4.46863L12.1686 7.99648Z" fill="currentColor"/>
</svg>
