<svg width="25" height="16" viewBox="0 0 25 16" fill="none" xmlns="http://www.w3.org/2000/svg">
<path d="M0.108887 0H24.1633V16H0.108887V0Z" fill="#00ABC2"/>
<path d="M12.5908 8.8456C13.7592 8.8456 14.7064 7.89838 14.7064 6.72993C14.7064 5.56148 13.7592 4.61426 12.5908 4.61426C11.4223 4.61426 10.4751 5.56148 10.4751 6.72993C10.4751 7.89838 11.4223 8.8456 12.5908 8.8456Z" fill="#FFEC2D"/>
<path d="M12.5906 4.32633C12.7164 4.32476 12.7635 4.24616 12.7635 4.15186C12.7635 4.02611 12.5906 3.42725 12.5906 3.42725C12.5906 3.42725 12.4177 4.02611 12.4177 4.15186C12.4177 4.24616 12.4649 4.32633 12.5906 4.32633Z" fill="#FFEC2D"/>
<path d="M14.994 6.72954C14.9956 6.85529 15.0741 6.90244 15.1685 6.90244C15.2942 6.90244 15.8931 6.72954 15.8931 6.72954C15.8931 6.72954 15.2942 6.55664 15.1685 6.55664C15.0741 6.55664 14.994 6.6038 14.994 6.72954Z" fill="#FFEC2D"/>
<path d="M12.5908 9.13266C12.465 9.13423 12.4179 9.21282 12.4179 9.30713C12.4179 9.43287 12.5908 10.0317 12.5908 10.0317C12.5908 10.0317 12.7637 9.43287 12.7637 9.30713C12.7637 9.21282 12.7165 9.13266 12.5908 9.13266Z" fill="#FFEC2D"/>
<path d="M10.1874 6.72944C10.1858 6.6037 10.1072 6.55654 10.0129 6.55654C9.88719 6.55654 9.28833 6.72944 9.28833 6.72944C9.28833 6.72944 9.88719 6.90234 10.0129 6.90234C10.1072 6.90234 10.1874 6.85519 10.1874 6.72944Z" fill="#FFEC2D"/>
<path d="M13.5032 4.51331C13.6149 4.55656 13.6878 4.4999 13.7254 4.41178C13.7755 4.2943 13.8612 3.6733 13.8612 3.6733C13.8612 3.6733 13.47 4.17134 13.4199 4.28882C13.3824 4.37694 13.3921 4.4686 13.5032 4.51331Z" fill="#FFEC2D"/>
<path d="M14.8162 7.65559C14.7659 7.77744 14.8182 7.85177 14.9043 7.88639C15.0191 7.93255 15.6369 7.98561 15.6369 7.98561C15.6369 7.98561 15.1614 7.59903 15.0466 7.55287C14.9605 7.51825 14.8679 7.53431 14.8162 7.65559Z" fill="#FFEC2D"/>
<path d="M11.678 8.9447C11.5663 8.90145 11.4933 8.95811 11.4558 9.04623C11.4057 9.16371 11.3199 9.78471 11.3199 9.78471C11.3199 9.78471 11.7112 9.28667 11.7612 9.16919C11.7988 9.08107 11.7891 8.98941 11.678 8.9447Z" fill="#FFEC2D"/>
<path d="M10.3655 5.80193C10.4158 5.68008 10.3634 5.60575 10.2774 5.57113C10.1626 5.52497 9.54478 5.47191 9.54478 5.47191C9.54478 5.47191 10.0203 5.85849 10.1351 5.90465C10.2211 5.93927 10.3137 5.92321 10.3655 5.80193Z" fill="#FFEC2D"/>
<path d="M14.2902 5.02998C14.3803 5.11778 14.4692 5.09555 14.5359 5.02887C14.6248 4.93995 14.926 4.39423 14.926 4.39423C14.926 4.39423 14.3803 4.69543 14.2913 4.78435C14.2246 4.85104 14.2013 4.94106 14.2902 5.02998Z" fill="#FFEC2D"/>
<path d="M14.2901 8.4289C14.2023 8.51892 14.2245 8.60784 14.2912 8.67452C14.3801 8.76344 14.9258 9.06464 14.9258 9.06464C14.9258 9.06464 14.6246 8.51892 14.5357 8.43001C14.469 8.36332 14.379 8.33998 14.2901 8.4289Z" fill="#FFEC2D"/>
<path d="M10.8917 8.42901C10.8016 8.3412 10.7127 8.36343 10.646 8.43012C10.5571 8.51903 10.2559 9.06475 10.2559 9.06475C10.2559 9.06475 10.8016 8.76355 10.8906 8.67464C10.9572 8.60795 10.9806 8.51792 10.8917 8.42901Z" fill="#FFEC2D"/>
<path d="M10.8918 5.03009C10.9796 4.94006 10.9574 4.85115 10.8907 4.78446C10.8018 4.69554 10.256 4.39434 10.256 4.39434C10.256 4.39434 10.5572 4.94006 10.6462 5.02898C10.7129 5.09566 10.8029 5.119 10.8918 5.03009Z" fill="#FFEC2D"/>
<path d="M14.8161 5.80245C14.8693 5.92315 14.9605 5.93978 15.0466 5.90516C15.1613 5.85901 15.6368 5.47242 15.6368 5.47242C15.6368 5.47242 15.019 5.52549 14.9043 5.57164C14.8182 5.60626 14.7644 5.68117 14.8161 5.80245Z" fill="#FFEC2D"/>
<path d="M13.5036 8.9451C13.3931 8.99128 13.3828 9.08147 13.4203 9.16959C13.4704 9.28707 13.8617 9.78511 13.8617 9.78511C13.8617 9.78511 13.7759 9.16411 13.7258 9.04663C13.6883 8.95851 13.6147 8.90038 13.5036 8.9451Z" fill="#FFEC2D"/>
<path d="M10.3653 7.65556C10.3121 7.53486 10.2209 7.51823 10.1348 7.55284C10.0201 7.599 9.54457 7.98558 9.54457 7.98558C9.54457 7.98558 10.1624 7.93252 10.2771 7.88636C10.3632 7.85175 10.417 7.77684 10.3653 7.65556Z" fill="#FFEC2D"/>
<path d="M11.6778 4.5134C11.7883 4.46722 11.7986 4.37702 11.7611 4.28891C11.711 4.17143 11.3197 3.67338 11.3197 3.67338C11.3197 3.67338 11.4055 4.29438 11.4556 4.41187C11.4931 4.49998 11.5667 4.55811 11.6778 4.5134Z" fill="#FFEC2D"/>
<path d="M13.0511 4.37826C13.167 4.39755 13.2276 4.32739 13.2483 4.23382C13.2759 4.10905 13.2485 3.48619 13.2485 3.48619C13.2485 3.48619 12.9581 4.05172 12.9305 4.17648C12.9098 4.27006 12.9355 4.35742 13.0511 4.37826Z" fill="#FFEC2D"/>
<path d="M14.9536 7.21056C14.926 7.34145 14.9912 7.40408 15.0824 7.42045C15.204 7.44227 15.8231 7.36662 15.8231 7.36662C15.8231 7.36662 15.2839 7.08306 15.1623 7.06124C15.0711 7.04487 14.9826 7.07994 14.9536 7.21056Z" fill="#FFEC2D"/>
<path d="M12.1308 9.08121C12.0149 9.06192 11.9543 9.13208 11.9336 9.22566C11.906 9.35042 11.9334 9.97329 11.9334 9.97329C11.9334 9.97329 12.2238 9.40775 12.2514 9.28299C12.2721 9.18941 12.2464 9.10206 12.1308 9.08121Z" fill="#FFEC2D"/>
<path d="M10.2283 6.24892C10.2558 6.11802 10.1907 6.0554 10.0995 6.03903C9.97792 6.0172 9.3588 6.09286 9.3588 6.09286C9.3588 6.09286 9.89801 6.37641 10.0196 6.39824C10.1108 6.41461 10.1992 6.37954 10.2283 6.24892Z" fill="#FFEC2D"/>
<path d="M13.92 4.73889C14.02 4.8032 14.1021 4.76147 14.1562 4.68185C14.2282 4.5757 14.4352 3.9799 14.4352 3.9799C14.4352 3.9799 13.9559 4.3952 13.8839 4.50135C13.8298 4.58097 13.821 4.67325 13.92 4.73889Z" fill="#FFEC2D"/>
<path d="M14.5946 8.07419C14.5212 8.18486 14.5574 8.26848 14.6344 8.31941C14.737 8.38731 15.3287 8.55969 15.3287 8.55969C15.3287 8.55969 14.9425 8.0853 14.8398 8.0174C14.7628 7.96647 14.6693 7.96437 14.5946 8.07419Z" fill="#FFEC2D"/>
<path d="M11.2611 8.72107C11.1612 8.65676 11.079 8.69849 11.025 8.77811C10.9529 8.88426 10.7459 9.48006 10.7459 9.48006C10.7459 9.48006 11.2252 9.06476 11.2973 8.95861C11.3513 8.87899 11.3601 8.78671 11.2611 8.72107Z" fill="#FFEC2D"/>
<path d="M10.5873 5.38577C10.6607 5.2751 10.6245 5.19148 10.5475 5.14056C10.4449 5.07265 9.8532 4.90027 9.8532 4.90027C9.8532 4.90027 10.2394 5.37466 10.3421 5.44256C10.4191 5.49349 10.5126 5.49559 10.5873 5.38577Z" fill="#FFEC2D"/>
<path d="M14.59 5.39714C14.6607 5.50085 14.7522 5.49645 14.8308 5.44411C14.9355 5.37433 15.3389 4.89819 15.3389 4.89819C15.3389 4.89819 14.7446 5.08674 14.6398 5.15652C14.5613 5.20886 14.5205 5.29256 14.59 5.39714Z" fill="#FFEC2D"/>
<path d="M13.925 8.72941C13.8209 8.80052 13.825 8.89207 13.8772 8.97052C13.9468 9.07512 14.4227 9.47732 14.4227 9.47732C14.4227 9.47732 14.2356 8.88318 14.166 8.77857C14.1138 8.70012 14.03 8.65961 13.925 8.72941Z" fill="#FFEC2D"/>
<path d="M10.5919 8.06331C10.5212 7.9596 10.4297 7.964 10.3511 8.01634C10.2464 8.08612 9.84301 8.56226 9.84301 8.56226C9.84301 8.56226 10.4373 8.37371 10.5421 8.30393C10.6206 8.25159 10.6614 8.16789 10.5919 8.06331Z" fill="#FFEC2D"/>
<path d="M11.2571 4.73055C11.3613 4.65944 11.3572 4.56789 11.3049 4.48944C11.2353 4.38484 10.7594 3.98264 10.7594 3.98264C10.7594 3.98264 10.9465 4.57679 11.0161 4.68139C11.0684 4.75984 11.1521 4.80035 11.2571 4.73055Z" fill="#FFEC2D"/>
<path d="M14.9484 6.26155C14.9743 6.38543 15.0606 6.41694 15.1531 6.39886C15.2765 6.37476 15.8306 6.08921 15.8306 6.08921C15.8306 6.08921 15.2095 6.03325 15.0861 6.05736C14.9936 6.07544 14.9241 6.13737 14.9484 6.26155Z" fill="#FFEC2D"/>
<path d="M13.0578 9.08679C12.9346 9.11231 12.9035 9.1985 12.9218 9.29114C12.9462 9.41467 13.2321 9.96998 13.2321 9.96998C13.2321 9.96998 13.2858 9.34873 13.2614 9.22521C13.2431 9.13257 13.1813 9.06281 13.0578 9.08679Z" fill="#FFEC2D"/>
<path d="M10.2332 7.19792C10.2073 7.07404 10.1211 7.04253 10.0285 7.06061C9.90516 7.08472 9.35104 7.37026 9.35104 7.37026C9.35104 7.37026 9.97212 7.42622 10.0955 7.40212C10.188 7.38404 10.2576 7.3221 10.2332 7.19792Z" fill="#FFEC2D"/>
<path d="M12.1238 4.37317C12.247 4.34765 12.2781 4.26146 12.2598 4.16882C12.2354 4.04529 11.9496 3.48998 11.9496 3.48998C11.9496 3.48998 11.8959 4.11123 11.9202 4.23475C11.9385 4.32739 12.0003 4.39715 12.1238 4.37317Z" fill="#FFEC2D"/>
<path d="M12.5184 10.4234C12.4634 10.5224 12.4303 10.6371 12.3612 10.7267C12.1474 10.5334 11.8393 10.5381 11.569 10.5271C11.3458 10.5145 11.1037 10.4941 10.9308 10.3353C10.7501 10.186 10.6007 9.99426 10.3996 9.87323C10.2105 9.83252 10.0328 9.75039 9.87928 9.63274C9.56178 9.37339 9.37944 8.98829 9.06822 8.72108C9.01007 8.6645 8.93933 8.61891 8.87332 8.57019C8.81044 8.5859 8.83874 8.72108 8.76172 8.65192C8.71928 8.62048 8.61397 8.61891 8.60454 8.66135C8.69884 8.7871 8.79473 8.92856 8.80887 9.08889C8.74286 9.09517 8.62811 9.07474 8.59668 9.09832C8.68306 9.22789 8.7916 9.34123 8.91733 9.43312C8.8576 9.44255 8.73971 9.43783 8.71614 9.46141C8.83382 9.5741 8.97911 9.65379 9.13738 9.69247C9.16882 9.73648 9.08866 9.82136 9.15782 9.85908C9.19711 9.8748 9.32914 9.90309 9.23798 9.94867C9.17511 9.98954 9.19868 10.0886 9.27885 10.0854C9.32915 10.1121 9.44232 10.1169 9.45175 10.164C9.40616 10.208 9.26784 10.2615 9.38573 10.3055C9.49687 10.3685 9.62122 10.4045 9.74882 10.4108C9.68595 10.4642 9.60736 10.4941 9.54291 10.5444C9.8337 10.7157 10.1559 10.8273 10.4766 10.9373C10.6023 10.9782 10.7328 11.0175 10.8648 11.0427C10.4813 11.0207 10.1103 10.9075 9.7614 10.7519C9.58064 10.6733 9.39988 10.5963 9.2144 10.5287C9.29456 10.4862 9.38887 10.4752 9.47375 10.4391C9.29771 10.4045 9.10752 10.3919 8.95505 10.2976C8.97706 10.2536 9.06508 10.252 9.11538 10.23C9.20969 10.208 9.26627 10.1829 9.13581 10.1734C9.00378 10.1373 8.85288 10.153 8.735 10.0744C8.74286 10.0273 8.86546 10.043 8.91418 10.0225C8.97706 10.0115 9.04622 10.0021 9.09652 9.95968C8.89218 9.87637 8.62497 9.9361 8.46464 9.75534C8.42849 9.68618 8.57939 9.74119 8.62183 9.73019C8.73185 9.73019 8.84974 9.76477 8.95505 9.72076C8.65641 9.5903 8.33733 9.46927 8.11098 9.22721C8.08584 9.18791 8.01039 9.08103 8.07169 9.06845C8.24773 9.09203 8.37505 9.28379 8.56524 9.25393C8.59039 9.22092 8.45521 9.16591 8.42063 9.11718C8.13629 8.88872 7.88827 8.61843 7.68502 8.31555C7.67245 8.21024 7.83434 8.19452 7.87678 8.27468C8.08741 8.47902 8.2776 8.71479 8.54009 8.85311C8.6344 8.8987 8.48665 8.79967 8.46779 8.76352C8.21813 8.48675 8.00232 8.18124 7.82491 7.85344C7.79348 7.79371 7.74475 7.68525 7.83592 7.65381C7.92551 7.60823 8.01667 7.66953 8.06226 7.74812C8.23987 7.97289 8.37191 8.2401 8.59353 8.42715C8.40491 8.06092 8.20215 7.67268 8.19743 7.25143C8.20215 7.16969 8.20686 7.04709 8.31846 7.04866C8.41277 7.03452 8.39706 7.15398 8.42849 7.21056C8.51966 7.52178 8.55895 7.85815 8.74286 8.13165C8.70356 7.90216 8.64226 7.66482 8.68313 7.43062C8.69256 7.35203 8.77744 7.33002 8.83559 7.37717C8.88118 7.4872 8.89061 7.62709 8.93147 7.74655C9.17644 8.56022 9.69223 9.26568 10.3933 9.74591C10.9673 10.1387 11.6371 10.3685 12.3313 10.4108C12.3942 10.4171 12.4571 10.4186 12.5184 10.4218M14.6623 11.8537C14.5492 11.9229 14.4611 11.8003 14.3668 11.7641C14.2977 11.8018 14.2914 11.9245 14.2285 11.9842C14.1531 12.0706 14.0588 11.959 14.0666 11.8742C13.9754 11.9512 13.9299 12.1256 13.7837 12.1005C13.713 12.0439 13.6611 11.9245 13.6076 12.0612C13.5652 12.1272 13.4505 12.2215 13.3892 12.1209C13.3703 12.0329 13.3263 11.9292 13.2791 12.0691C13.2446 12.1697 13.1377 12.242 13.0371 12.1979C12.9805 12.1524 13.0811 11.9826 13.0103 11.9936C12.9035 12.0659 12.8406 12.2404 12.6913 12.2262C12.6331 12.1634 12.7274 12.0518 12.663 11.9795C12.5891 12.0753 12.5058 12.2168 12.3753 12.2262C12.3125 12.1759 12.3785 12.0298 12.3376 12.0093C12.2056 12.0879 12.0641 12.231 11.8975 12.1869C11.9619 11.9355 12.2354 11.849 12.4634 11.8301C12.8579 11.7814 13.2728 11.871 13.6532 11.728C13.7145 11.6903 13.8623 11.6384 13.8104 11.5519C13.7633 11.4828 13.9314 11.5095 13.9472 11.4293C13.9377 11.3287 14.0257 11.3429 14.1106 11.335C14.4941 11.3177 14.873 11.3979 15.2549 11.412C15.2832 11.5975 15.0773 11.728 14.9091 11.6714C14.8305 11.684 14.7126 11.4891 14.7362 11.6305C14.7205 11.706 14.7299 11.8034 14.6623 11.8537ZM11.4024 11.4733C11.4904 11.5535 11.5533 11.4576 11.6366 11.4215C11.9086 11.315 12.1642 11.1705 12.3958 10.9924C12.5404 10.8729 12.6661 10.7173 12.861 10.678C13.2414 10.5633 13.6454 10.5774 14.0257 10.4705C14.3165 10.0744 14.8085 9.93138 15.2219 9.70347C15.3146 9.67518 15.3508 9.59816 15.3791 9.51485C15.5363 9.26493 15.7516 9.04488 16.0062 8.89398C16.1264 8.823 16.268 8.79735 16.4055 8.82168C16.3865 8.98202 16.31 9.13003 16.1901 9.23821C16.2829 9.23664 16.363 9.17848 16.4542 9.18162C16.4856 9.34824 16.3065 9.43469 16.2106 9.53843C16.264 9.551 16.4684 9.56672 16.3568 9.62016C16.2153 9.71762 16.0534 9.7852 15.9229 9.89995C16.044 9.92195 16.0581 9.9471 15.9355 9.99111C15.8679 10.0351 15.7406 10.0508 15.728 10.1389C15.8192 10.1954 15.6872 10.2489 15.6353 10.2678C15.5378 10.2913 15.4341 10.3338 15.5646 10.4092C15.5158 10.4831 15.4089 10.4988 15.3225 10.491C15.3492 10.5758 15.3869 10.6701 15.2785 10.7079C15.0352 10.9002 14.7438 11.022 14.436 11.06C14.8211 11.0882 15.2188 11.0175 15.5473 10.8085C15.5913 10.7566 15.8192 10.7 15.6919 10.6576C15.6321 10.6324 15.5033 10.6041 15.4938 10.5585C15.673 10.4485 15.8978 10.4878 16.0895 10.4234C16.0943 10.3605 15.9434 10.3778 15.8868 10.3636C15.7532 10.3526 15.761 10.3181 15.8899 10.3055C16.0534 10.2615 16.2389 10.2536 16.3772 10.1483C16.2656 10.0949 16.1241 10.1404 16.0047 10.098C16.2074 10.01 16.4464 10.0005 16.6287 9.86694C16.712 9.7742 16.5218 9.80407 16.4668 9.80564C16.3552 9.82607 16.3033 9.77106 16.4306 9.72547C16.6491 9.56358 16.9242 9.45984 17.0782 9.22721C17.1144 9.17534 17.1631 9.01815 17.0468 9.07317C16.8959 9.12504 16.7623 9.2948 16.5878 9.24293C16.9305 8.97729 17.2543 8.67707 17.4885 8.31084C17.501 8.20395 17.3344 8.19295 17.292 8.27626C17.0719 8.48688 16.8739 8.7368 16.5925 8.8704C16.8577 8.60524 17.088 8.30733 17.2778 7.9839C17.3203 7.88959 17.4319 7.77484 17.3722 7.66953C17.2731 7.5878 17.1505 7.66325 17.1002 7.75913C16.9289 7.98233 16.8 8.24168 16.5815 8.42401C16.7717 8.05777 16.9713 7.66639 16.9745 7.24514C16.9745 7.15712 16.9588 7.02823 16.8393 7.04552C16.745 7.06124 16.7686 7.2027 16.7293 7.27343C16.6444 7.56265 16.6035 7.87544 16.4306 8.12693C16.4699 7.89273 16.5375 7.64753 16.4856 7.41175C16.4605 7.30487 16.2892 7.35045 16.3127 7.45577C16.1084 8.4916 15.4121 9.39696 14.5052 9.92038C14.0886 10.1562 13.6249 10.307 13.1502 10.3762C13.0245 10.4029 12.8862 10.3872 12.7651 10.4312C12.4696 10.656 12.292 11.0348 11.9195 11.1527C11.7513 11.236 11.5344 11.2533 11.415 11.4073C11.4053 11.4279 11.4009 11.4506 11.4024 11.4733ZM12.215 11.3114C12.1584 11.3146 12.1034 11.3209 12.0484 11.3382C11.9745 11.3492 11.9038 11.3743 11.8315 11.3853L11.8016 11.3916L11.7529 11.3963C11.7592 11.4227 11.7592 11.4501 11.7529 11.4765C11.7478 11.4884 11.7403 11.4991 11.7309 11.5079C11.7215 11.5205 11.7105 11.5299 11.6963 11.5362C11.6835 11.5425 11.6696 11.5462 11.6554 11.5472C11.6413 11.5472 11.6271 11.5472 11.613 11.5409C11.5989 11.5362 11.5863 11.5284 11.5737 11.5174L11.5297 11.5252H11.4888L11.4448 11.5095C11.4306 11.5039 11.4169 11.4971 11.4039 11.4891C11.3505 11.5205 11.2908 11.5504 11.2578 11.6054C11.2424 11.6305 11.2338 11.6592 11.2326 11.6887C11.2295 11.7264 11.2389 11.7641 11.2546 11.7987C11.2609 11.8081 11.2656 11.7626 11.2829 11.7563C11.3128 11.7311 11.3505 11.7138 11.3882 11.7044C11.4197 11.6887 11.415 11.7044 11.4024 11.7295C11.3992 11.7437 11.3819 11.7924 11.4055 11.7673C11.5142 11.7267 11.629 11.7049 11.745 11.7028C11.9116 11.6855 12.0783 11.6808 12.2449 11.6792L12.7164 11.6887C12.7919 11.6918 12.8673 11.7075 12.9412 11.695C12.9585 11.6903 12.9868 11.6903 12.9978 11.6792C12.9632 11.6604 12.9239 11.6588 12.8877 11.6541H12.5875C12.5042 11.6462 12.4178 11.6447 12.3392 11.6132C12.3172 11.6054 12.2983 11.5849 12.2779 11.6069C12.248 11.6176 12.2168 11.6245 12.1851 11.6274C12.1301 11.6305 12.0751 11.6195 12.0248 11.5991C12.061 11.5488 12.105 11.5048 12.1458 11.4576L12.0484 11.4372C12.1066 11.3979 12.1584 11.3523 12.215 11.3114Z" fill="#FFEC2D"/>
<path d="M11.6415 11.4968C11.6623 11.4968 11.6792 11.4799 11.6792 11.4591C11.6792 11.4383 11.6623 11.4214 11.6415 11.4214C11.6206 11.4214 11.6038 11.4383 11.6038 11.4591C11.6038 11.4799 11.6206 11.4968 11.6415 11.4968Z" fill="#FFEC2D"/>
<path d="M11.638 11.4684C11.6467 11.4684 11.6538 11.4614 11.6538 11.4527C11.6538 11.444 11.6467 11.437 11.638 11.437C11.6294 11.437 11.6223 11.444 11.6223 11.4527C11.6223 11.4614 11.6294 11.4684 11.638 11.4684Z" fill="#FFEC2D" stroke="#FFEC2D" stroke-width="0.00628728"/>
<path d="M2.13452 1.2756C2.13452 1.2756 1.98363 1.14671 1.93176 1.21116C1.85002 1.31333 2.18639 1.82417 2.18639 2.00336C2.18639 2.29886 1.98834 2.37902 1.74628 2.41989C1.58281 2.44818 1.31717 2.40889 1.31717 2.40889C1.36747 2.3413 1.40048 2.32086 1.48379 2.31615C1.38948 2.26899 1.29517 2.16211 1.29517 1.99707C1.29517 1.74401 1.39891 1.63869 1.39891 1.35262C1.39891 1.19701 1.27002 0.992676 1.27002 0.992676C1.49951 1.01625 1.61268 1.22845 1.54823 1.39821C1.56592 1.40173 1.5842 1.40084 1.60147 1.39563C1.61874 1.39043 1.63446 1.38105 1.64726 1.36834C1.66297 1.4155 1.63783 1.47051 1.60167 1.51766C1.62997 1.53338 1.65197 1.52395 1.69598 1.51452C1.69284 1.56167 1.66455 1.61512 1.59224 1.66384C1.79972 1.6104 1.92547 1.75344 1.92547 1.90433C1.92547 2.01907 1.84688 2.10081 1.76829 2.10081C1.74314 2.10081 1.70541 2.08981 1.68498 2.07409C1.66926 2.10553 1.67869 2.14796 1.69284 2.1794C1.63625 2.16368 1.59853 2.1291 1.62525 2.05837C1.58124 2.05523 1.54666 2.03951 1.52308 2.01122C1.54666 1.97978 1.58281 1.96406 1.62525 1.96406C1.59381 1.89804 1.62997 1.86189 1.68184 1.83203C1.68184 1.83203 1.64883 1.96406 1.73213 1.96406C1.76986 1.96406 1.80444 1.95306 1.80444 1.89647C1.80444 1.84775 1.762 1.78016 1.66297 1.78487C1.56552 1.78959 1.48536 1.85246 1.48536 2.00964C1.48536 2.15425 1.60325 2.22656 1.75728 2.2297C1.8956 2.23599 2.00092 2.16054 2.00092 2.0175C2.00092 1.82574 1.72585 1.39192 1.72585 1.22216C1.72585 1.09484 1.83902 1.02254 1.95219 1.02254C2.0968 1.02254 2.2194 1.16715 2.2194 1.16715L2.13452 1.27403V1.2756Z" fill="#FFEC2D"/>
<path d="M2.16594 4.71925C2.16594 5.03833 1.87986 5.2018 1.65509 5.2018C1.3533 5.2018 1.19141 5.02104 1.19141 4.78369C1.19141 4.65009 1.21656 4.56521 1.27786 4.43789L1.9726 2.99653C1.99777 2.9359 2.00853 2.87026 2.00404 2.80477C2.00404 2.67588 1.87829 2.57057 1.74783 2.569C1.62837 2.56428 1.49634 2.67903 1.49634 2.80949C1.49634 2.96824 1.57965 3.03897 1.66452 3.03897C1.76826 3.03897 1.80913 2.99653 1.80913 2.92266C1.80913 2.87236 1.78555 2.85035 1.7494 2.85035C1.65981 2.85035 1.68653 2.96981 1.68653 2.96981C1.6747 2.96763 1.6635 2.96285 1.65373 2.95584C1.64395 2.94882 1.63585 2.93973 1.62999 2.92922C1.62414 2.91871 1.62067 2.90704 1.61985 2.89504C1.61903 2.88303 1.62086 2.871 1.62523 2.85979C1.59158 2.85224 1.56127 2.83405 1.53878 2.80792C1.56236 2.78434 1.59065 2.76705 1.62523 2.76076C1.6048 2.6916 1.63309 2.65859 1.69282 2.64287C1.68207 2.6665 1.67931 2.69299 1.68496 2.71832C1.77927 2.69003 1.92545 2.73404 1.92545 2.89751C1.92545 3.06098 1.81228 3.19773 1.60008 3.16472C1.65038 3.1883 1.67553 3.23702 1.68181 3.29204C1.64252 3.27632 1.60008 3.27632 1.60008 3.27632C1.62523 3.31876 1.65981 3.35491 1.65824 3.44293C1.61894 3.42407 1.58122 3.39106 1.53249 3.41149C1.61108 3.56868 1.51363 3.78244 1.26528 3.83274C1.35645 3.72586 1.40046 3.61269 1.40046 3.49794C1.40046 3.12857 1.29829 3.06727 1.29829 2.80949C1.29991 2.7497 1.31572 2.69116 1.34441 2.63869C1.37311 2.58621 1.41387 2.54132 1.46333 2.5077V2.51241C1.43291 2.50617 1.40416 2.49355 1.37897 2.4754C1.35378 2.45725 1.33271 2.43397 1.31715 2.4071C1.49225 2.35884 1.67735 2.36047 1.85157 2.41182C1.90985 2.42006 1.96552 2.44129 2.01449 2.47394C2.06346 2.50658 2.10447 2.54981 2.1345 2.60044C2.16588 2.67204 2.18208 2.74938 2.18208 2.82756C2.18208 2.90575 2.16588 2.98308 2.1345 3.05469C2.03547 3.25903 1.57336 4.24299 1.42875 4.55106C1.39731 4.61708 1.38002 4.68624 1.38002 4.76169C1.38002 4.95031 1.55293 5.01632 1.65038 5.01632C1.76826 5.01632 1.88929 4.92673 1.88929 4.81513C1.88929 4.7444 1.85 4.70039 1.79499 4.70039C1.66138 4.70039 1.66924 4.81356 1.69596 4.88586C1.61265 4.84814 1.5655 4.78212 1.57807 4.71296C1.5265 4.7043 1.47969 4.67756 1.44604 4.63751C1.47748 4.59665 1.51834 4.56521 1.57807 4.56364C1.55135 4.45518 1.62523 4.4096 1.69596 4.38445C1.67396 4.46304 1.65824 4.55578 1.79499 4.55578C1.89401 4.55578 1.97103 4.5715 2.01661 4.63751L2.02762 4.21312C2.0339 4.08581 1.85786 4.08738 1.74469 4.12667C1.78713 3.98049 1.87358 3.90033 2.07477 3.92076C2.04395 3.90891 2.01764 3.88765 1.99958 3.86C1.98152 3.83235 1.97263 3.79971 1.97417 3.76673C1.97417 3.64727 2.07163 3.51524 2.1345 3.47594L2.16594 4.71768V4.71925Z" fill="#FFEC2D"/>
<path d="M2.16594 5.67479C2.16594 5.35571 1.87986 5.19224 1.65509 5.19224C1.3533 5.19224 1.19141 5.373 1.19141 5.61035C1.19141 5.74395 1.21656 5.82883 1.27786 5.95615L1.9726 7.39751C1.99777 7.45814 2.00853 7.52378 2.00404 7.58927C2.00404 7.71816 1.87829 7.82347 1.74783 7.82504C1.62837 7.82976 1.49634 7.71502 1.49634 7.58456C1.49634 7.4258 1.57965 7.35507 1.66452 7.35507C1.76826 7.35507 1.80913 7.39751 1.80913 7.47138C1.80913 7.52168 1.78555 7.54369 1.7494 7.54369C1.65981 7.54369 1.68653 7.42423 1.68653 7.42423C1.6747 7.42642 1.6635 7.43119 1.65373 7.43821C1.64395 7.44522 1.63585 7.45431 1.62999 7.46482C1.62414 7.47533 1.62067 7.487 1.61985 7.49901C1.61903 7.51101 1.62086 7.52305 1.62523 7.53426C1.59158 7.5418 1.56127 7.55999 1.53878 7.58613C1.56236 7.6097 1.59065 7.62699 1.62523 7.63328C1.6048 7.70244 1.63309 7.73545 1.69282 7.75117C1.68207 7.72754 1.67931 7.70106 1.68496 7.67572C1.77927 7.70401 1.92545 7.66 1.92545 7.49653C1.92545 7.33306 1.81228 7.19632 1.60008 7.22932C1.65038 7.20575 1.67553 7.15702 1.68181 7.10201C1.64252 7.11772 1.60008 7.11772 1.60008 7.11772C1.62523 7.07529 1.65981 7.03913 1.65824 6.95111C1.61894 6.96997 1.58122 7.00298 1.53249 6.98255C1.61108 6.82537 1.51363 6.6116 1.26528 6.5613C1.35645 6.66818 1.40046 6.78136 1.40046 6.8961C1.40046 7.26548 1.29829 7.32678 1.29829 7.58456C1.29991 7.64434 1.31572 7.70288 1.34441 7.75536C1.37311 7.80783 1.41387 7.85273 1.46333 7.88635V7.88163C1.43291 7.88788 1.40416 7.90049 1.37897 7.91864C1.35378 7.93679 1.33271 7.96007 1.31715 7.98694C1.49225 8.0352 1.67735 8.03357 1.85157 7.98223C1.90985 7.97398 1.96552 7.95275 2.01449 7.9201C2.06346 7.88746 2.10447 7.84423 2.1345 7.79361C2.16588 7.722 2.18208 7.64466 2.18208 7.56648C2.18208 7.4883 2.16588 7.41096 2.1345 7.33935C2.03547 7.13501 1.57336 6.15106 1.42875 5.84298C1.39731 5.77696 1.38002 5.7078 1.38002 5.63235C1.38002 5.44374 1.55293 5.37772 1.65038 5.37772C1.76826 5.37772 1.88929 5.46731 1.88929 5.57891C1.88929 5.64964 1.85 5.69366 1.79499 5.69366C1.66138 5.69366 1.66924 5.58048 1.69596 5.50818C1.61265 5.5459 1.5655 5.61192 1.57807 5.68108C1.5265 5.68974 1.47969 5.71649 1.44604 5.75653C1.47748 5.7974 1.51834 5.82883 1.57807 5.8304C1.55135 5.93886 1.62523 5.98444 1.69596 6.00959C1.67396 5.931 1.65824 5.83826 1.79499 5.83826C1.89401 5.83826 1.97103 5.82254 2.01661 5.75653L2.02762 6.18092C2.0339 6.30824 1.85786 6.30667 1.74469 6.26737C1.78713 6.41355 1.87358 6.49371 2.07477 6.47328C2.04395 6.48513 2.01764 6.50639 1.99958 6.53404C1.98152 6.56169 1.97263 6.59433 1.97417 6.62732C1.97417 6.74677 2.07163 6.87881 2.1345 6.9181L2.16594 5.67637V5.67479Z" fill="#FFEC2D"/>
<path d="M2.13501 1.2756C2.13501 1.2756 2.28591 1.14671 2.33778 1.21116C2.41951 1.31333 2.08314 1.82417 2.08314 2.00336C2.08314 2.29886 2.28119 2.37902 2.52325 2.41989C2.68672 2.44818 2.95236 2.40889 2.95236 2.40889C2.90206 2.3413 2.86905 2.32086 2.78574 2.31615C2.88005 2.26899 2.97436 2.16211 2.97436 1.99707C2.97436 1.74401 2.87062 1.63869 2.87062 1.35262C2.87062 1.19701 2.99951 0.992676 2.99951 0.992676C2.77003 1.01625 2.65685 1.22845 2.7213 1.39821C2.70361 1.40173 2.68533 1.40084 2.66806 1.39563C2.65079 1.39043 2.63507 1.38105 2.62227 1.36834C2.60656 1.4155 2.63171 1.47051 2.66786 1.51766C2.63956 1.53338 2.61756 1.52395 2.57355 1.51452C2.57669 1.56167 2.60498 1.61512 2.67729 1.66384C2.46981 1.6104 2.34406 1.75344 2.34406 1.90433C2.34406 2.01907 2.42265 2.10081 2.50124 2.10081C2.52639 2.10081 2.56412 2.08981 2.58455 2.07409C2.60027 2.10553 2.59084 2.14796 2.57669 2.1794C2.63328 2.16368 2.671 2.1291 2.64428 2.05837C2.68829 2.05523 2.72287 2.03951 2.74645 2.01122C2.72287 1.97978 2.68672 1.96406 2.64428 1.96406C2.67572 1.89804 2.63956 1.86189 2.58769 1.83203C2.58769 1.83203 2.6207 1.96406 2.5374 1.96406C2.49967 1.96406 2.46509 1.95306 2.46509 1.89647C2.46509 1.84775 2.50753 1.78016 2.60656 1.78487C2.70401 1.78959 2.78417 1.85246 2.78417 2.00964C2.78417 2.15425 2.66629 2.22656 2.51225 2.2297C2.37393 2.23599 2.26861 2.16054 2.26861 2.0175C2.26861 1.82574 2.54368 1.39192 2.54368 1.22216C2.54368 1.09484 2.43051 1.02254 2.31734 1.02254C2.17273 1.02254 2.05013 1.16715 2.05013 1.16715L2.13501 1.27403V1.2756Z" fill="#FFEC2D"/>
<path d="M2.10335 4.71925C2.10335 5.03833 2.38942 5.2018 2.61419 5.2018C2.91598 5.2018 3.07788 5.02104 3.07788 4.78369C3.07788 4.65009 3.05273 4.56521 2.99143 4.43789L2.29669 2.99653C2.27152 2.9359 2.26076 2.87026 2.26525 2.80477C2.26525 2.67588 2.391 2.57057 2.52146 2.569C2.64091 2.56428 2.77295 2.67903 2.77295 2.80949C2.77295 2.96824 2.68964 3.03897 2.60476 3.03897C2.50102 3.03897 2.46016 2.99653 2.46016 2.92266C2.46016 2.87236 2.48373 2.85035 2.51988 2.85035C2.60948 2.85035 2.58276 2.96981 2.58276 2.96981C2.59459 2.96763 2.60579 2.96285 2.61556 2.95584C2.62534 2.94882 2.63344 2.93973 2.63929 2.92922C2.64515 2.91871 2.64861 2.90704 2.64944 2.89504C2.65026 2.88303 2.64842 2.871 2.64406 2.85979C2.6777 2.85224 2.70802 2.83405 2.73051 2.80792C2.70693 2.78434 2.67864 2.76705 2.64406 2.76076C2.66449 2.6916 2.6362 2.65859 2.57647 2.64287C2.58722 2.6665 2.58998 2.69299 2.58433 2.71832C2.49002 2.69003 2.34384 2.73404 2.34384 2.89751C2.34384 3.06098 2.45701 3.19773 2.66921 3.16472C2.61891 3.1883 2.59376 3.23702 2.58747 3.29204C2.62677 3.27632 2.66921 3.27632 2.66921 3.27632C2.64406 3.31876 2.60948 3.35491 2.61105 3.44293C2.65035 3.42407 2.68807 3.39106 2.7368 3.41149C2.6582 3.56868 2.75566 3.78244 3.00401 3.83274C2.91284 3.72586 2.86883 3.61269 2.86883 3.49794C2.86883 3.12857 2.971 3.06727 2.971 2.80949C2.96938 2.7497 2.95357 2.69116 2.92487 2.63869C2.89618 2.58621 2.85542 2.54132 2.80596 2.5077V2.51241C2.83637 2.50617 2.86512 2.49355 2.89032 2.4754C2.91551 2.45725 2.93658 2.43397 2.95214 2.4071C2.77704 2.35884 2.59194 2.36047 2.41772 2.41182C2.35944 2.42006 2.30376 2.44129 2.25479 2.47394C2.20582 2.50658 2.16481 2.54981 2.13479 2.60044C2.10341 2.67204 2.0872 2.74938 2.0872 2.82756C2.0872 2.90575 2.10341 2.98308 2.13479 3.05469C2.23381 3.25903 2.69593 4.24299 2.84054 4.55106C2.87197 4.61708 2.88926 4.68624 2.88926 4.76169C2.88926 4.95031 2.71636 5.01632 2.61891 5.01632C2.50102 5.01632 2.37999 4.92673 2.37999 4.81513C2.37999 4.7444 2.41929 4.70039 2.4743 4.70039C2.60791 4.70039 2.60005 4.81356 2.57333 4.88586C2.65663 4.84814 2.70379 4.78212 2.69121 4.71296C2.74279 4.7043 2.7896 4.67756 2.82325 4.63751C2.79181 4.59665 2.75094 4.56521 2.69121 4.56364C2.71793 4.45518 2.64406 4.4096 2.57333 4.38445C2.59533 4.46304 2.61105 4.55578 2.4743 4.55578C2.37528 4.55578 2.29826 4.5715 2.25267 4.63751L2.24167 4.21312C2.23538 4.08581 2.41143 4.08738 2.5246 4.12667C2.48216 3.98049 2.39571 3.90033 2.19452 3.92076C2.22534 3.90891 2.25165 3.88765 2.26971 3.86C2.28776 3.83235 2.29665 3.79971 2.29511 3.76673C2.29511 3.64727 2.19766 3.51524 2.13479 3.47594L2.10335 4.71768V4.71925Z" fill="#FFEC2D"/>
<path d="M2.10335 5.67479C2.10335 5.35571 2.38942 5.19224 2.61419 5.19224C2.91598 5.19224 3.07788 5.373 3.07788 5.61035C3.07788 5.74395 3.05273 5.82883 2.99143 5.95615L2.29669 7.39751C2.27152 7.45814 2.26076 7.52378 2.26525 7.58927C2.26525 7.71816 2.391 7.82347 2.52146 7.82504C2.64091 7.82976 2.77295 7.71502 2.77295 7.58456C2.77295 7.4258 2.68964 7.35507 2.60476 7.35507C2.50102 7.35507 2.46016 7.39751 2.46016 7.47138C2.46016 7.52168 2.48373 7.54369 2.51988 7.54369C2.60948 7.54369 2.58276 7.42423 2.58276 7.42423C2.59459 7.42642 2.60579 7.43119 2.61556 7.43821C2.62534 7.44522 2.63344 7.45431 2.63929 7.46482C2.64515 7.47533 2.64861 7.487 2.64944 7.49901C2.65026 7.51101 2.64842 7.52305 2.64406 7.53426C2.6777 7.5418 2.70802 7.55999 2.73051 7.58613C2.70693 7.6097 2.67864 7.62699 2.64406 7.63328C2.66449 7.70244 2.6362 7.73545 2.57647 7.75117C2.58722 7.72754 2.58998 7.70106 2.58433 7.67572C2.49002 7.70401 2.34384 7.66 2.34384 7.49653C2.34384 7.33306 2.45701 7.19632 2.66921 7.22932C2.61891 7.20575 2.59376 7.15702 2.58747 7.10201C2.62677 7.11772 2.66921 7.11772 2.66921 7.11772C2.64406 7.07529 2.60948 7.03913 2.61105 6.95111C2.65035 6.96997 2.68807 7.00298 2.7368 6.98255C2.6582 6.82537 2.75566 6.6116 3.00401 6.5613C2.91284 6.66818 2.86883 6.78136 2.86883 6.8961C2.86883 7.26548 2.971 7.32678 2.971 7.58456C2.96938 7.64434 2.95357 7.70288 2.92487 7.75536C2.89618 7.80783 2.85542 7.85273 2.80596 7.88635V7.88163C2.83637 7.88788 2.86512 7.90049 2.89032 7.91864C2.91551 7.93679 2.93658 7.96007 2.95214 7.98694C2.77704 8.0352 2.59194 8.03357 2.41772 7.98223C2.35944 7.97398 2.30376 7.95275 2.25479 7.9201C2.20582 7.88746 2.16481 7.84423 2.13479 7.79361C2.10341 7.722 2.0872 7.64466 2.0872 7.56648C2.0872 7.4883 2.10341 7.41096 2.13479 7.33935C2.23381 7.13501 2.69593 6.15106 2.84054 5.84298C2.87197 5.77696 2.88926 5.7078 2.88926 5.63235C2.88926 5.44374 2.71636 5.37772 2.61891 5.37772C2.50102 5.37772 2.37999 5.46731 2.37999 5.57891C2.37999 5.64964 2.41929 5.69366 2.4743 5.69366C2.60791 5.69366 2.60005 5.58048 2.57333 5.50818C2.65663 5.5459 2.70379 5.61192 2.69121 5.68108C2.74279 5.68974 2.7896 5.71649 2.82325 5.75653C2.79181 5.7974 2.75094 5.82883 2.69121 5.8304C2.71793 5.93886 2.64406 5.98444 2.57333 6.00959C2.59533 5.931 2.61105 5.83826 2.4743 5.83826C2.37528 5.83826 2.29826 5.82254 2.25267 5.75653L2.24167 6.18092C2.23538 6.30824 2.41143 6.30667 2.5246 6.26737C2.48216 6.41355 2.39571 6.49371 2.19452 6.47328C2.22534 6.48513 2.25165 6.50639 2.26971 6.53404C2.28776 6.56169 2.29665 6.59433 2.29511 6.62732C2.29511 6.74677 2.19766 6.87881 2.13479 6.9181L2.10335 5.67637V5.67479Z" fill="#FFEC2D"/>
<path d="M2.13452 14.6995C2.13452 14.6995 1.98363 14.8284 1.93176 14.7639C1.85002 14.6618 2.18639 14.1509 2.18639 13.9717C2.18639 13.6762 1.98834 13.5961 1.74628 13.5552C1.58281 13.5269 1.31717 13.5662 1.31717 13.5662C1.36747 13.6338 1.40048 13.6542 1.48379 13.6589C1.38948 13.7061 1.29517 13.813 1.29517 13.978C1.29517 14.2311 1.39891 14.3364 1.39891 14.6225C1.39891 14.7781 1.27002 14.9824 1.27002 14.9824C1.49951 14.9588 1.61268 14.7466 1.54823 14.5769C1.56592 14.5734 1.5842 14.5743 1.60147 14.5795C1.61874 14.5847 1.63446 14.594 1.64726 14.6068C1.66297 14.5596 1.63783 14.5046 1.60167 14.4574C1.62997 14.4417 1.65197 14.4511 1.69598 14.4606C1.69284 14.4134 1.66455 14.36 1.59224 14.3113C1.79972 14.3647 1.92547 14.2217 1.92547 14.0708C1.92547 13.956 1.84688 13.8743 1.76829 13.8743C1.74314 13.8743 1.70541 13.8853 1.68498 13.901C1.66926 13.8696 1.67869 13.8271 1.69284 13.7957C1.63625 13.8114 1.59853 13.846 1.62525 13.9167C1.58124 13.9199 1.54666 13.9356 1.52308 13.9639C1.54666 13.9953 1.58281 14.011 1.62525 14.011C1.59381 14.0771 1.62997 14.1132 1.68184 14.1431C1.68184 14.1431 1.64883 14.011 1.73213 14.011C1.76986 14.011 1.80444 14.022 1.80444 14.0786C1.80444 14.1274 1.762 14.1949 1.66297 14.1902C1.56552 14.1855 1.48536 14.1226 1.48536 13.9655C1.48536 13.8208 1.60325 13.7485 1.75728 13.7454C1.8956 13.7391 2.00092 13.8146 2.00092 13.9576C2.00092 14.1494 1.72585 14.5832 1.72585 14.7529C1.72585 14.8803 1.83902 14.9526 1.95219 14.9526C2.0968 14.9526 2.2194 14.8079 2.2194 14.8079L2.13452 14.7011V14.6995Z" fill="#FFEC2D"/>
<path d="M2.16594 11.2558C2.16594 10.9368 1.87986 10.7733 1.65509 10.7733C1.3533 10.7733 1.19141 10.9541 1.19141 11.1914C1.19141 11.325 1.21656 11.4099 1.27786 11.5372L1.9726 12.9786C1.99777 13.0392 2.00853 13.1048 2.00404 13.1703C2.00404 13.2992 1.87829 13.4045 1.74783 13.4061C1.62837 13.4108 1.49634 13.2961 1.49634 13.1656C1.49634 13.0069 1.57965 12.9361 1.66452 12.9361C1.76826 12.9361 1.80913 12.9786 1.80913 13.0524C1.80913 13.1027 1.78555 13.1247 1.7494 13.1247C1.65981 13.1247 1.68653 13.0053 1.68653 13.0053C1.6747 13.0075 1.6635 13.0122 1.65373 13.0193C1.64395 13.0263 1.63585 13.0354 1.62999 13.0459C1.62414 13.0564 1.62067 13.0681 1.61985 13.0801C1.61903 13.0921 1.62086 13.1041 1.62523 13.1153C1.59158 13.1229 1.56127 13.141 1.53878 13.1672C1.56236 13.1908 1.59065 13.208 1.62523 13.2143C1.6048 13.2835 1.63309 13.3165 1.69282 13.3322C1.68207 13.3086 1.67931 13.2821 1.68496 13.2568C1.77927 13.2851 1.92545 13.2411 1.92545 13.0776C1.92545 12.9141 1.81228 12.7774 1.60008 12.8104C1.65038 12.7868 1.67553 12.7381 1.68181 12.6831C1.64252 12.6988 1.60008 12.6988 1.60008 12.6988C1.62523 12.6563 1.65981 12.6202 1.65824 12.5322C1.61894 12.551 1.58122 12.584 1.53249 12.5636C1.61108 12.4064 1.51363 12.1927 1.26528 12.1424C1.35645 12.2492 1.40046 12.3624 1.40046 12.4772C1.40046 12.8465 1.29829 12.9078 1.29829 13.1656C1.29991 13.2254 1.31572 13.2839 1.34441 13.3364C1.37311 13.3889 1.41387 13.4338 1.46333 13.4674V13.4627C1.43291 13.4689 1.40416 13.4815 1.37897 13.4997C1.35378 13.5178 1.33271 13.5411 1.31715 13.568C1.49225 13.6163 1.67735 13.6146 1.85157 13.5633C1.90985 13.555 1.96552 13.5338 2.01449 13.5012C2.06346 13.4685 2.10447 13.4253 2.1345 13.3747C2.16588 13.3031 2.18208 13.2257 2.18208 13.1475C2.18208 13.0694 2.16588 12.992 2.1345 12.9204C2.03547 12.7161 1.57336 11.7321 1.42875 11.424C1.39731 11.358 1.38002 11.2889 1.38002 11.2134C1.38002 11.0248 1.55293 10.9588 1.65038 10.9588C1.76826 10.9588 1.88929 11.0484 1.88929 11.16C1.88929 11.2307 1.85 11.2747 1.79499 11.2747C1.66138 11.2747 1.66924 11.1615 1.69596 11.0892C1.61265 11.127 1.5655 11.193 1.57807 11.2621C1.5265 11.2708 1.47969 11.2975 1.44604 11.3376C1.47748 11.3785 1.51834 11.4099 1.57807 11.4115C1.55135 11.5199 1.62523 11.5655 1.69596 11.5906C1.67396 11.5121 1.65824 11.4193 1.79499 11.4193C1.89401 11.4193 1.97103 11.4036 2.01661 11.3376L2.02762 11.762C2.0339 11.8893 1.85786 11.8877 1.74469 11.8484C1.78713 11.9946 1.87358 12.0748 2.07477 12.0543C2.04395 12.0662 2.01764 12.0874 1.99958 12.1151C1.98152 12.1427 1.97263 12.1754 1.97417 12.2084C1.97417 12.3278 2.07163 12.4599 2.1345 12.4992L2.16594 11.2574V11.2558Z" fill="#FFEC2D"/>
<path d="M2.16594 10.3003C2.16594 10.6194 1.87986 10.7829 1.65509 10.7829C1.3533 10.7829 1.19141 10.6021 1.19141 10.3647C1.19141 10.2311 1.21656 10.1463 1.27786 10.0189L1.9726 8.57759C1.99777 8.51696 2.00853 8.45132 2.00404 8.38583C2.00404 8.25694 1.87829 8.15163 1.74783 8.15005C1.62837 8.14534 1.49634 8.26008 1.49634 8.39054C1.49634 8.5493 1.57965 8.62003 1.66452 8.62003C1.76826 8.62003 1.80913 8.57759 1.80913 8.50371C1.80913 8.45341 1.78555 8.43141 1.7494 8.43141C1.65981 8.43141 1.68653 8.55087 1.68653 8.55087C1.6747 8.54868 1.6635 8.54391 1.65373 8.53689C1.64395 8.52987 1.63585 8.52079 1.62999 8.51028C1.62414 8.49977 1.62067 8.48809 1.61985 8.47609C1.61903 8.46409 1.62086 8.45205 1.62523 8.44084C1.59158 8.4333 1.56127 8.41511 1.53878 8.38897C1.56236 8.36539 1.59065 8.3481 1.62523 8.34182C1.6048 8.27266 1.63309 8.23965 1.69282 8.22393C1.68207 8.24756 1.67931 8.27404 1.68496 8.29938C1.77927 8.27108 1.92545 8.31509 1.92545 8.47856C1.92545 8.64203 1.81228 8.77878 1.60008 8.74577C1.65038 8.76935 1.67553 8.81808 1.68181 8.87309C1.64252 8.85737 1.60008 8.85737 1.60008 8.85737C1.62523 8.89981 1.65981 8.93596 1.65824 9.02399C1.61894 9.00512 1.58122 8.97212 1.53249 8.99255C1.61108 9.14973 1.51363 9.3635 1.26528 9.4138C1.35645 9.30691 1.40046 9.19374 1.40046 9.079C1.40046 8.70962 1.29829 8.64832 1.29829 8.39054C1.29991 8.33076 1.31572 8.27221 1.34441 8.21974C1.37311 8.16727 1.41387 8.12237 1.46333 8.08875V8.09347C1.43291 8.08722 1.40416 8.07461 1.37897 8.05646C1.35378 8.03831 1.33271 8.01503 1.31715 7.98816C1.49225 7.9399 1.67735 7.94153 1.85157 7.99287C1.90985 8.00112 1.96552 8.02235 2.01449 8.05499C2.06346 8.08764 2.10447 8.13087 2.1345 8.18149C2.16588 8.2531 2.18208 8.33043 2.18208 8.40862C2.18208 8.4868 2.16588 8.56414 2.1345 8.63575C2.03547 8.84008 1.57336 9.82404 1.42875 10.1321C1.39731 10.1981 1.38002 10.2673 1.38002 10.3427C1.38002 10.5314 1.55293 10.5974 1.65038 10.5974C1.76826 10.5974 1.88929 10.5078 1.88929 10.3962C1.88929 10.3255 1.85 10.2814 1.79499 10.2814C1.66138 10.2814 1.66924 10.3946 1.69596 10.4669C1.61265 10.4292 1.5655 10.3632 1.57807 10.294C1.5265 10.2854 1.47969 10.2586 1.44604 10.2186C1.47748 10.1777 1.51834 10.1463 1.57807 10.1447C1.55135 10.0362 1.62523 9.99066 1.69596 9.96551C1.67396 10.0441 1.65824 10.1368 1.79499 10.1368C1.89401 10.1368 1.97103 10.1526 2.01661 10.2186L2.02762 9.79418C2.0339 9.66686 1.85786 9.66843 1.74469 9.70773C1.78713 9.56155 1.87358 9.48139 2.07477 9.50182C2.04395 9.48997 2.01764 9.46871 1.99958 9.44106C1.98152 9.41341 1.97263 9.38077 1.97417 9.34778C1.97417 9.22832 2.07163 9.09629 2.1345 9.05699L2.16594 10.2987V10.3003Z" fill="#FFEC2D"/>
<path d="M2.13477 14.6995C2.13477 14.6995 2.28566 14.8284 2.33753 14.7639C2.41927 14.6618 2.0829 14.1509 2.0829 13.9717C2.0829 13.6762 2.28095 13.5961 2.52301 13.5552C2.68648 13.5269 2.95211 13.5662 2.95211 13.5662C2.90181 13.6338 2.86881 13.6542 2.7855 13.6589C2.87981 13.7061 2.97412 13.813 2.97412 13.978C2.97412 14.2311 2.87038 14.3364 2.87038 14.6225C2.87038 14.7781 2.99927 14.9824 2.99927 14.9824C2.76978 14.9588 2.65661 14.7466 2.72106 14.5769C2.70337 14.5734 2.68508 14.5743 2.66781 14.5795C2.65055 14.5847 2.63482 14.594 2.62203 14.6068C2.60631 14.5596 2.63146 14.5046 2.66761 14.4574C2.63932 14.4417 2.61732 14.4511 2.5733 14.4606C2.57645 14.4134 2.60474 14.36 2.67704 14.3113C2.46956 14.3647 2.34382 14.2217 2.34382 14.0708C2.34382 13.956 2.42241 13.8743 2.501 13.8743C2.52615 13.8743 2.56387 13.8853 2.58431 13.901C2.60002 13.8696 2.59059 13.8271 2.57645 13.7957C2.63303 13.8114 2.67076 13.846 2.64404 13.9167C2.68805 13.9199 2.72263 13.9356 2.7462 13.9639C2.72263 13.9953 2.68648 14.011 2.64404 14.011C2.67547 14.0771 2.63932 14.1132 2.58745 14.1431C2.58745 14.1431 2.62046 14.011 2.53715 14.011C2.49943 14.011 2.46485 14.022 2.46485 14.0786C2.46485 14.1274 2.50729 14.1949 2.60631 14.1902C2.70377 14.1855 2.78393 14.1226 2.78393 13.9655C2.78393 13.8208 2.66604 13.7485 2.512 13.7454C2.37368 13.7391 2.26837 13.8146 2.26837 13.9576C2.26837 14.1494 2.54344 14.5832 2.54344 14.7529C2.54344 14.8803 2.43027 14.9526 2.3171 14.9526C2.17249 14.9526 2.04989 14.8079 2.04989 14.8079L2.13477 14.7011V14.6995Z" fill="#FFEC2D"/>
<path d="M2.10335 11.2554C2.10335 10.9363 2.38942 10.7728 2.61419 10.7728C2.91598 10.7728 3.07788 10.9536 3.07788 11.1909C3.07788 11.3245 3.05273 11.4094 2.99143 11.5367L2.29669 12.9781C2.27152 13.0387 2.26076 13.1043 2.26525 13.1698C2.26525 13.2987 2.391 13.404 2.52146 13.4056C2.64091 13.4103 2.77295 13.2956 2.77295 13.1651C2.77295 13.0064 2.68964 12.9356 2.60476 12.9356C2.50102 12.9356 2.46016 12.9781 2.46016 13.052C2.46016 13.1022 2.48373 13.1243 2.51988 13.1243C2.60948 13.1243 2.58276 13.0048 2.58276 13.0048C2.59459 13.007 2.60579 13.0118 2.61556 13.0188C2.62534 13.0258 2.63344 13.0349 2.63929 13.0454C2.64515 13.0559 2.64861 13.0676 2.64944 13.0796C2.65026 13.0916 2.64842 13.1036 2.64406 13.1148C2.6777 13.1224 2.70802 13.1406 2.73051 13.1667C2.70693 13.1903 2.67864 13.2076 2.64406 13.2138C2.66449 13.283 2.6362 13.316 2.57647 13.3317C2.58722 13.3081 2.58998 13.2816 2.58433 13.2563C2.49002 13.2846 2.34384 13.2406 2.34384 13.0771C2.34384 12.9136 2.45701 12.7769 2.66921 12.8099C2.61891 12.7863 2.59376 12.7376 2.58747 12.6826C2.62677 12.6983 2.66921 12.6983 2.66921 12.6983C2.64406 12.6559 2.60948 12.6197 2.61105 12.5317C2.65035 12.5505 2.68807 12.5835 2.7368 12.5631C2.6582 12.4059 2.75566 12.1922 3.00401 12.1419C2.91284 12.2488 2.86883 12.3619 2.86883 12.4767C2.86883 12.846 2.971 12.9073 2.971 13.1651C2.96938 13.2249 2.95357 13.2834 2.92487 13.3359C2.89618 13.3884 2.85542 13.4333 2.80596 13.4669V13.4622C2.83637 13.4684 2.86512 13.4811 2.89032 13.4992C2.91551 13.5174 2.93658 13.5406 2.95214 13.5675C2.77704 13.6158 2.59194 13.6141 2.41772 13.5628C2.35944 13.5545 2.30376 13.5333 2.25479 13.5007C2.20582 13.468 2.16481 13.4248 2.13479 13.3742C2.10341 13.3026 2.0872 13.2252 2.0872 13.147C2.0872 13.0689 2.10341 12.9915 2.13479 12.9199C2.23381 12.7156 2.69593 11.7316 2.84054 11.4235C2.87197 11.3575 2.88926 11.2884 2.88926 11.2129C2.88926 11.0243 2.71636 10.9583 2.61891 10.9583C2.50102 10.9583 2.37999 11.0479 2.37999 11.1595C2.37999 11.2302 2.41929 11.2742 2.4743 11.2742C2.60791 11.2742 2.60005 11.1611 2.57333 11.0887C2.65663 11.1265 2.70379 11.1925 2.69121 11.2616C2.74279 11.2703 2.7896 11.2971 2.82325 11.3371C2.79181 11.378 2.75094 11.4094 2.69121 11.411C2.71793 11.5194 2.64406 11.565 2.57333 11.5902C2.59533 11.5116 2.61105 11.4188 2.4743 11.4188C2.37528 11.4188 2.29826 11.4031 2.25267 11.3371L2.24167 11.7615C2.23538 11.8888 2.41143 11.8872 2.5246 11.8479C2.48216 11.9941 2.39571 12.0743 2.19452 12.0538C2.22534 12.0657 2.25165 12.087 2.26971 12.1146C2.28776 12.1423 2.29665 12.1749 2.29511 12.2079C2.29511 12.3273 2.19766 12.4594 2.13479 12.4987L2.10335 11.2569V11.2554Z" fill="#FFEC2D"/>
<path d="M2.10335 10.3003C2.10335 10.6194 2.38942 10.7829 2.61419 10.7829C2.91598 10.7829 3.07788 10.6021 3.07788 10.3647C3.07788 10.2311 3.05273 10.1463 2.99143 10.0189L2.29669 8.57759C2.27152 8.51696 2.26076 8.45132 2.26525 8.38583C2.26525 8.25694 2.391 8.15163 2.52146 8.15005C2.64091 8.14534 2.77295 8.26008 2.77295 8.39054C2.77295 8.5493 2.68964 8.62003 2.60476 8.62003C2.50102 8.62003 2.46016 8.57759 2.46016 8.50371C2.46016 8.45341 2.48373 8.43141 2.51988 8.43141C2.60948 8.43141 2.58276 8.55087 2.58276 8.55087C2.59459 8.54868 2.60579 8.54391 2.61556 8.53689C2.62534 8.52987 2.63344 8.52079 2.63929 8.51028C2.64515 8.49977 2.64861 8.48809 2.64944 8.47609C2.65026 8.46409 2.64842 8.45205 2.64406 8.44084C2.6777 8.4333 2.70802 8.41511 2.73051 8.38897C2.70693 8.36539 2.67864 8.3481 2.64406 8.34182C2.66449 8.27266 2.6362 8.23965 2.57647 8.22393C2.58722 8.24756 2.58998 8.27404 2.58433 8.29938C2.49002 8.27108 2.34384 8.31509 2.34384 8.47856C2.34384 8.64203 2.45701 8.77878 2.66921 8.74577C2.61891 8.76935 2.59376 8.81808 2.58747 8.87309C2.62677 8.85737 2.66921 8.85737 2.66921 8.85737C2.64406 8.89981 2.60948 8.93596 2.61105 9.02399C2.65035 9.00512 2.68807 8.97212 2.7368 8.99255C2.6582 9.14973 2.75566 9.3635 3.00401 9.4138C2.91284 9.30691 2.86883 9.19374 2.86883 9.079C2.86883 8.70962 2.971 8.64832 2.971 8.39054C2.96938 8.33076 2.95357 8.27221 2.92487 8.21974C2.89618 8.16727 2.85542 8.12237 2.80596 8.08875V8.09347C2.83637 8.08722 2.86512 8.07461 2.89032 8.05646C2.91551 8.03831 2.93658 8.01503 2.95214 7.98816C2.77704 7.9399 2.59194 7.94153 2.41772 7.99287C2.35944 8.00112 2.30376 8.02235 2.25479 8.05499C2.20582 8.08764 2.16481 8.13087 2.13479 8.18149C2.10341 8.2531 2.0872 8.33043 2.0872 8.40862C2.0872 8.4868 2.10341 8.56414 2.13479 8.63575C2.23381 8.84008 2.69593 9.82404 2.84054 10.1321C2.87197 10.1981 2.88926 10.2673 2.88926 10.3427C2.88926 10.5314 2.71636 10.5974 2.61891 10.5974C2.50102 10.5974 2.37999 10.5078 2.37999 10.3962C2.37999 10.3255 2.41929 10.2814 2.4743 10.2814C2.60791 10.2814 2.60005 10.3946 2.57333 10.4669C2.65663 10.4292 2.70379 10.3632 2.69121 10.294C2.74279 10.2854 2.7896 10.2586 2.82325 10.2186C2.79181 10.1777 2.75094 10.1463 2.69121 10.1447C2.71793 10.0362 2.64406 9.99066 2.57333 9.96551C2.59533 10.0441 2.61105 10.1368 2.4743 10.1368C2.37528 10.1368 2.29826 10.1526 2.25267 10.2186L2.24167 9.79418C2.23538 9.66686 2.41143 9.66843 2.5246 9.70773C2.48216 9.56155 2.39571 9.48139 2.19452 9.50182C2.22534 9.48997 2.25165 9.46871 2.26971 9.44106C2.28776 9.41341 2.29665 9.38077 2.29511 9.34778C2.29511 9.22832 2.19766 9.09629 2.13479 9.05699L2.10335 10.2987V10.3003Z" fill="#FFEC2D"/>
</svg>
