<svg width="25" height="16" viewBox="0 0 25 16" fill="none" xmlns="http://www.w3.org/2000/svg">
<path d="M24.1089 0H0.0544434V16H24.1089V0Z" fill="#B31942"/>
<path d="M0.0544434 1.84619H24.1089H0.0544434ZM24.1089 4.30773H0.0544434H24.1089ZM0.0544434 6.76927H24.1089H0.0544434ZM24.1089 9.23081H0.0544434H24.1089ZM0.0544434 11.6923H24.1089H0.0544434ZM24.1089 14.1539H0.0544434H24.1089Z" fill="#000008"/>
<path d="M0.0544434 1.84619H24.1089M24.1089 4.30773H0.0544434M0.0544434 6.76927H24.1089M24.1089 9.23081H0.0544434M0.0544434 11.6923H24.1089M24.1089 14.1539H0.0544434" stroke="white" stroke-width="1.23077"/>
<path d="M12.2145 0H0.0544434V8.61539H12.2145V0Z" fill="#0A3161"/>
<path d="M1.06782 0.369141L1.35719 1.25973L0.599609 0.709317H1.53604L0.778451 1.25973L1.06782 0.369141Z" fill="white"/>
<path d="M1.06782 2.09229L1.35719 2.98288L0.599609 2.43246H1.53604L0.778451 2.98288L1.06782 2.09229Z" fill="white"/>
<path d="M1.06782 3.81543L1.35719 4.70602L0.599609 4.15561H1.53604L0.778451 4.70602L1.06782 3.81543Z" fill="white"/>
<path d="M1.06782 5.53857L1.35719 6.42917L0.599609 5.87875H1.53604L0.778451 6.42917L1.06782 5.53857Z" fill="white"/>
<path d="M1.06782 7.26172L1.35719 8.15231L0.599609 7.6019H1.53604L0.778451 8.15231L1.06782 7.26172Z" fill="white"/>
<path d="M2.08101 1.23096L2.37038 2.12155L1.61279 1.57113H2.54922L1.79163 2.12155L2.08101 1.23096Z" fill="white"/>
<path d="M2.08101 2.9541L2.37038 3.84469L1.61279 3.29428H2.54922L1.79163 3.84469L2.08101 2.9541Z" fill="white"/>
<path d="M2.08101 4.67725L2.37038 5.56784L1.61279 5.01742H2.54922L1.79163 5.56784L2.08101 4.67725Z" fill="white"/>
<path d="M2.08101 6.40039L2.37038 7.29098L1.61279 6.74057H2.54922L1.79163 7.29098L2.08101 6.40039Z" fill="white"/>
<path d="M3.09492 0.369141L3.38429 1.25973L2.62671 0.709317H3.56313L2.80555 1.25973L3.09492 0.369141Z" fill="white"/>
<path d="M3.09492 2.09229L3.38429 2.98288L2.62671 2.43246H3.56313L2.80555 2.98288L3.09492 2.09229Z" fill="white"/>
<path d="M3.09492 3.81543L3.38429 4.70602L2.62671 4.15561H3.56313L2.80555 4.70602L3.09492 3.81543Z" fill="white"/>
<path d="M3.09492 5.53857L3.38429 6.42917L2.62671 5.87875H3.56313L2.80555 6.42917L3.09492 5.53857Z" fill="white"/>
<path d="M3.09492 7.26172L3.38429 8.15231L2.62671 7.6019H3.56313L2.80555 8.15231L3.09492 7.26172Z" fill="white"/>
<path d="M4.10884 1.23096L4.39821 2.12155L3.64062 1.57113H4.57705L3.81947 2.12155L4.10884 1.23096Z" fill="white"/>
<path d="M4.10884 2.9541L4.39821 3.84469L3.64062 3.29428H4.57705L3.81947 3.84469L4.10884 2.9541Z" fill="white"/>
<path d="M4.10884 4.67725L4.39821 5.56784L3.64062 5.01742H4.57705L3.81947 5.56784L4.10884 4.67725Z" fill="white"/>
<path d="M4.10884 6.40039L4.39821 7.29098L3.64062 6.74057H4.57705L3.81947 7.29098L4.10884 6.40039Z" fill="white"/>
<path d="M5.12104 0.369141L5.41042 1.25973L4.65283 0.709317H5.58926L4.83167 1.25973L5.12104 0.369141Z" fill="white"/>
<path d="M5.12104 2.09229L5.41042 2.98288L4.65283 2.43246H5.58926L4.83167 2.98288L5.12104 2.09229Z" fill="white"/>
<path d="M5.12104 3.81543L5.41042 4.70602L4.65283 4.15561H5.58926L4.83167 4.70602L5.12104 3.81543Z" fill="white"/>
<path d="M5.12104 5.53857L5.41042 6.42917L4.65283 5.87875H5.58926L4.83167 6.42917L5.12104 5.53857Z" fill="white"/>
<path d="M5.12104 7.26172L5.41042 8.15231L4.65283 7.6019H5.58926L4.83167 8.15231L5.12104 7.26172Z" fill="white"/>
<path d="M6.13496 1.23096L6.42433 2.12155L5.66675 1.57113H6.60317L5.84559 2.12155L6.13496 1.23096Z" fill="white"/>
<path d="M6.13496 2.9541L6.42433 3.84469L5.66675 3.29428H6.60317L5.84559 3.84469L6.13496 2.9541Z" fill="white"/>
<path d="M6.13496 4.67725L6.42433 5.56784L5.66675 5.01742H6.60317L5.84559 5.56784L6.13496 4.67725Z" fill="white"/>
<path d="M6.13496 6.40039L6.42433 7.29098L5.66675 6.74057H6.60317L5.84559 7.29098L6.13496 6.40039Z" fill="white"/>
<path d="M7.14888 0.369141L7.43825 1.25973L6.68066 0.709317H7.61709L6.85951 1.25973L7.14888 0.369141Z" fill="white"/>
<path d="M7.14814 2.09229L7.43752 2.98288L6.67993 2.43246H7.61636L6.85877 2.98288L7.14814 2.09229Z" fill="white"/>
<path d="M7.14814 3.81543L7.43752 4.70602L6.67993 4.15561H7.61636L6.85877 4.70602L7.14814 3.81543Z" fill="white"/>
<path d="M7.14814 5.53857L7.43752 6.42917L6.67993 5.87875H7.61636L6.85877 6.42917L7.14814 5.53857Z" fill="white"/>
<path d="M7.14814 7.26172L7.43752 8.15231L6.67993 7.6019H7.61636L6.85877 8.15231L7.14814 7.26172Z" fill="white"/>
<path d="M8.16157 1.23096L8.45094 2.12155L7.69336 1.57113H8.62979L7.8722 2.12155L8.16157 1.23096Z" fill="white"/>
<path d="M8.16157 2.9541L8.45094 3.84469L7.69336 3.29428H8.62979L7.8722 3.84469L8.16157 2.9541Z" fill="white"/>
<path d="M8.16157 4.67725L8.45094 5.56784L7.69336 5.01742H8.62979L7.8722 5.56784L8.16157 4.67725Z" fill="white"/>
<path d="M8.16157 6.40039L8.45094 7.29098L7.69336 6.74057H8.62979L7.8722 7.29098L8.16157 6.40039Z" fill="white"/>
<path d="M9.17427 0.369141L9.46364 1.25973L8.70605 0.709317H9.64248L8.8849 1.25973L9.17427 0.369141Z" fill="white"/>
<path d="M9.17427 2.09229L9.46364 2.98288L8.70605 2.43246H9.64248L8.8849 2.98288L9.17427 2.09229Z" fill="white"/>
<path d="M9.17427 3.81543L9.46364 4.70602L8.70605 4.15561H9.64248L8.8849 4.70602L9.17427 3.81543Z" fill="white"/>
<path d="M9.17427 5.53857L9.46364 6.42917L8.70605 5.87875H9.64248L8.8849 6.42917L9.17427 5.53857Z" fill="white"/>
<path d="M9.17427 7.26123L9.46364 8.15182L8.70605 7.60141H9.64248L8.8849 8.15182L9.17427 7.26123Z" fill="white"/>
<path d="M10.1877 1.23047L10.4771 2.12106L9.71948 1.57065H10.6559L9.89832 2.12106L10.1877 1.23047Z" fill="white"/>
<path d="M10.1877 2.95361L10.4771 3.84421L9.71948 3.29379H10.6559L9.89832 3.84421L10.1877 2.95361Z" fill="white"/>
<path d="M10.1877 4.67676L10.4771 5.56735L9.71948 5.01693H10.6559L9.89832 5.56735L10.1877 4.67676Z" fill="white"/>
<path d="M10.1877 6.3999L10.4771 7.2905L9.71948 6.74008H10.6559L9.89832 7.2905L10.1877 6.3999Z" fill="white"/>
<path d="M11.2014 0.369141L11.4907 1.25973L10.7332 0.709317H11.6696L10.912 1.25973L11.2014 0.369141Z" fill="white"/>
<path d="M11.2011 2.09229L11.4905 2.98288L10.7329 2.43246H11.6693L10.9118 2.98288L11.2011 2.09229Z" fill="white"/>
<path d="M11.2011 3.81543L11.4905 4.70602L10.7329 4.15561H11.6693L10.9118 4.70602L11.2011 3.81543Z" fill="white"/>
<path d="M11.2011 5.53857L11.4905 6.42917L10.7329 5.87875H11.6693L10.9118 6.42917L11.2011 5.53857Z" fill="white"/>
<path d="M11.2011 7.26172L11.4905 8.15231L10.7329 7.6019H11.6693L10.9118 8.15231L11.2011 7.26172Z" fill="white"/>
</svg>
