<svg width="24" height="11" viewBox="0 0 24 11" fill="none" xmlns="http://www.w3.org/2000/svg">
<path d="M1 1C1 1 1.63651 2.14006 2.8619 3.5M23 1C23 1 22.3635 2.14006 21.1381 3.5M12 8V10M12 8C13.8998 8 15.5711 7.49767 17 6.76215M12 8C10.1002 8 8.42892 7.49767 7 6.76215M17 6.76215L18 8.5M17 6.76215C18.7525 5.86005 20.1405 4.60716 21.1381 3.5M21.1381 3.5L22.5 4.5M2.8619 3.5L1.5 5M2.8619 3.5C3.85953 4.60716 5.24746 5.86005 7 6.76215M7 6.76215L6 8.5" stroke="#111114" stroke-width="1.6" stroke-linecap="round" stroke-linejoin="round"/>
</svg>
