<svg width="20" height="20" viewBox="0 0 20 20" fill="none" xmlns="http://www.w3.org/2000/svg">
<path d="M19.3643 17.8884L14.408 12.9321C15.4875 11.5366 16.0714 9.83036 16.0714 8.03571C16.0714 5.8875 15.233 3.87321 13.717 2.35446C12.2009 0.835714 10.1812 0 8.03571 0C5.89018 0 3.87054 0.838393 2.35446 2.35446C0.835714 3.87054 0 5.8875 0 8.03571C0 10.1812 0.838393 12.2009 2.35446 13.717C3.87054 15.2357 5.8875 16.0714 8.03571 16.0714C9.83036 16.0714 11.5339 15.4875 12.9295 14.4107L17.8857 19.3643C17.9061 19.3847 17.9303 19.4009 17.957 19.4119C17.9836 19.423 18.0122 19.4287 18.0411 19.4287C18.0699 19.4287 18.0985 19.423 18.1252 19.4119C18.1518 19.4009 18.176 19.3847 18.1964 19.3643L19.3643 18.1991C19.3847 18.1787 19.4009 18.1545 19.4119 18.1278C19.423 18.1012 19.4287 18.0726 19.4287 18.0438C19.4287 18.0149 19.423 17.9863 19.4119 17.9597C19.4009 17.933 19.3847 17.9088 19.3643 17.8884ZM12.2786 12.2786C11.1429 13.4116 9.6375 14.0357 8.03571 14.0357C6.43393 14.0357 4.92857 13.4116 3.79286 12.2786C2.65982 11.1429 2.03571 9.6375 2.03571 8.03571C2.03571 6.43393 2.65982 4.92589 3.79286 3.79286C4.92857 2.65982 6.43393 2.03571 8.03571 2.03571C9.6375 2.03571 11.1455 2.65714 12.2786 3.79286C13.4116 4.92857 14.0357 6.43393 14.0357 8.03571C14.0357 9.6375 13.4116 11.1455 12.2786 12.2786Z" fill="currentColor"/>
</svg>
