<svg width="20" height="20" viewBox="0 0 20 20" fill="none" xmlns="http://www.w3.org/2000/svg">
<path fill-rule="evenodd" clip-rule="evenodd" d="M10.0087 1.81124C10.0121 1.81558 10.0191 1.82565 10.0265 1.845L10.0294 1.85276L10.0295 1.85274L11.8049 6.38246L11.8086 6.39195L11.8087 6.39193C12.0383 6.95638 12.548 7.37849 13.1819 7.43984C13.1825 7.4399 13.1831 7.43996 13.1837 7.44001L18.1363 7.93292C18.1364 7.93293 18.1365 7.93295 18.1367 7.93296C18.1473 7.93408 18.1504 7.93609 18.1556 7.94071C18.1646 7.94864 18.1803 7.96784 18.1909 8.00034C18.2014 8.03275 18.2018 8.06352 18.1971 8.08571C18.1936 8.10255 18.1872 8.11566 18.1749 8.12871L14.4496 11.5726L14.4482 11.5738C13.992 11.9975 13.8125 12.6167 13.9408 13.2109L13.9428 13.2205L13.9429 13.2204L15.0497 18.0593C15.0587 18.1023 15.053 18.1298 15.0468 18.1466C15.0394 18.1666 15.0271 18.1821 15.0148 18.1917C15.009 18.1962 15.0046 18.1984 15.002 18.1995C15.0016 18.1993 15.0011 18.1991 15.0006 18.1989C14.998 18.1978 14.9936 18.1957 14.9875 18.192M14.987 18.1917L10.8541 15.6355L10.8496 15.6327L10.8496 15.6327C10.324 15.3125 9.67609 15.3125 9.15057 15.6327L9.14601 15.6355L9.14602 15.6355L5.01326 18.1917C5.01319 18.1918 5.01311 18.1918 5.01304 18.1918C5.00862 18.1946 5.00522 18.1963 5.00282 18.1974C4.99967 18.196 4.99469 18.1934 4.9883 18.1883C4.97384 18.1769 4.96057 18.1596 4.95296 18.1391C4.94663 18.1221 4.94211 18.0979 4.94981 18.062C4.94994 18.0613 4.95008 18.0607 4.95022 18.0601L6.07093 13.2226L6.07364 13.2109L6.07355 13.2109C6.20185 12.6167 6.02232 11.9975 5.5661 11.5738L5.56476 11.5726L1.83372 8.12341C1.81589 8.10601 1.80774 8.08929 1.80345 8.07076C1.79817 8.04797 1.79847 8.01846 1.80761 7.98871C1.8168 7.95881 1.83044 7.94276 1.83644 7.93741C1.83666 7.93722 1.83686 7.93703 1.83706 7.93684C1.83881 7.93519 1.84018 7.93391 1.84929 7.93296C1.8494 7.93294 1.84952 7.93293 1.84963 7.93292L6.80233 7.44001C6.80291 7.43996 6.80349 7.4399 6.80406 7.43985C7.41343 7.38088 7.9615 6.97757 8.1848 6.37305L9.94318 1.85072L9.9454 1.84501L9.94538 1.845C9.95273 1.82565 9.95971 1.81558 9.96314 1.81124C9.96665 1.80679 9.9691 1.80498 9.97024 1.8042C9.97272 1.80254 9.97787 1.8002 9.98593 1.8002C9.99399 1.8002 9.99914 1.80254 10.0016 1.8042C10.0028 1.80498 10.0052 1.80679 10.0087 1.81124M8.45095 1.27343C8.99755 -0.157154 10.9731 -0.157549 11.5205 1.27224L13.292 5.79204C13.3047 5.82189 13.3193 5.8364 13.3267 5.84214C13.3307 5.84521 13.3333 5.84641 13.3343 5.84681C13.3346 5.84696 13.3349 5.84706 13.3352 5.84712C13.3355 5.84722 13.3358 5.84726 13.3361 5.84729L13.3392 5.84758L18.2961 6.34092L18.2974 6.34105C19.0347 6.41567 19.5294 6.94087 19.7129 7.50697C19.8959 8.07141 19.8049 8.77705 19.285 9.28109L19.2712 9.29413L15.537 12.7462C15.5369 12.7463 15.5368 12.7464 15.5367 12.7466C15.5106 12.771 15.4917 12.8086 15.5041 12.8701L16.6105 17.7072L16.6105 17.7072L16.612 17.7141C16.7657 18.4147 16.4891 19.0698 16.0005 19.452C15.5057 19.839 14.7837 19.9467 14.1463 19.553L14.1458 19.5528L10.017 16.999C10.0166 16.9988 10.0163 16.9986 10.0159 16.9984C10.0105 16.9952 10.0066 16.9938 10.0046 16.9933C10.0024 16.9926 10.0009 16.9925 10.0001 16.9925C9.99918 16.9925 9.99776 16.9926 9.99553 16.9933C9.99348 16.9938 9.98966 16.9952 9.9842 16.9984C9.98385 16.9986 9.9835 16.9988 9.98314 16.999L5.85443 19.5528L5.85396 19.553C5.21014 19.9506 4.48669 19.8308 3.99694 19.4442C3.51499 19.0637 3.23239 18.4106 3.38875 17.7111L3.38873 17.7111L3.39013 17.705L4.51037 12.8695C4.5225 12.8084 4.50365 12.7709 4.47767 12.7466C4.47755 12.7465 4.47743 12.7463 4.4773 12.7462L0.743099 9.29413L0.743069 9.29416L0.736824 9.28826C0.211508 8.79207 0.102602 8.08998 0.278236 7.5186C0.454405 6.94548 0.948233 6.41597 1.68853 6.34105L1.68986 6.34092L6.64691 5.84758L6.64993 5.84729C6.65332 5.84696 6.66086 5.84499 6.66898 5.83877C6.67615 5.83327 6.68105 5.8266 6.68407 5.81825L6.69069 5.8006L8.45095 1.27343Z" fill="currentColor" />
</svg>
