<svg width="18" height="18" viewBox="0 0 18 18" fill="none" xmlns="http://www.w3.org/2000/svg">
<path d="M17.2168 6.13679L12.2599 5.64346C11.9475 5.61356 11.6774 5.40426 11.5498 5.09032L9.77431 0.560608C9.49024 -0.186869 8.48164 -0.186869 8.19757 0.560608L6.43633 5.09032C6.3227 5.40426 6.03862 5.61356 5.72615 5.64346L0.769095 6.13679C0.0305087 6.21154 -0.267766 7.18326 0.286174 7.70649L4.02171 11.1598C4.26318 11.3841 4.3626 11.713 4.29158 12.0419L3.1695 16.8854C2.99906 17.6479 3.78025 18.2757 4.43362 17.8722L8.56686 15.3157C8.83673 15.1512 9.16341 15.1512 9.43328 15.3157L13.5667 17.8722C14.22 18.2757 15.0012 17.6629 14.8306 16.8854L13.7228 12.0419C13.6517 11.713 13.7512 11.3841 13.9926 11.1598L17.7282 7.70649C18.2679 7.18326 17.9554 6.21154 17.2168 6.13679Z" fill="currentColor"/>
</svg>
