<svg width="24" height="24" viewBox="0 0 24 24" fill="none" xmlns="http://www.w3.org/2000/svg">
<g clip-path="url(#clip0_6006_805)">
<path fill-rule="evenodd" clip-rule="evenodd" d="M2.16849 12.4233C1.99024 12.1781 1.84685 11.9661 1.73908 11.8C1.84685 11.6339 1.99024 11.4219 2.16849 11.1767C2.62365 10.5508 3.30127 9.71608 4.18821 8.88317C5.96857 7.21127 8.53215 5.6 11.8 5.6C15.0678 5.6 17.6314 7.21127 19.4118 8.88317C20.2987 9.71608 20.9764 10.5508 21.4315 11.1767C21.6098 11.4219 21.7531 11.6339 21.8609 11.8C21.7531 11.9661 21.6098 12.1781 21.4315 12.4233C20.9764 13.0492 20.2987 13.8839 19.4118 14.7168C17.6314 16.3887 15.0678 18 11.8 18C8.53215 18 5.96857 16.3887 4.18821 14.7168C3.30127 13.8839 2.62365 13.0492 2.16849 12.4233ZM23.4982 11.4094C23.4983 11.4097 23.4985 11.41 22.8 11.8C23.4985 12.19 23.4983 12.1903 23.4982 12.1906L23.4977 12.1914L23.4966 12.1934L23.4933 12.1993L23.4822 12.2187C23.4729 12.2349 23.4598 12.2575 23.4428 12.2862C23.4088 12.3436 23.3594 12.4252 23.2949 12.5275C23.1658 12.7322 22.9756 13.0204 22.7256 13.3642C22.2263 14.0508 21.4837 14.9661 20.5071 15.8832C18.5604 17.7113 15.624 19.6 11.8 19.6C7.97603 19.6 5.03961 17.7113 3.09293 15.8832C2.11635 14.9661 1.37368 14.0508 0.874442 13.3642C0.624379 13.0204 0.434172 12.7322 0.305115 12.5275C0.240556 12.4252 0.191207 12.3436 0.157235 12.2862C0.140246 12.2575 0.127094 12.2349 0.117799 12.2187L0.106748 12.1993L0.103396 12.1934L0.102263 12.1914L0.101833 12.1906C0.101655 12.1903 0.101493 12.19 0.8 11.8C0.101493 11.41 0.101655 11.4097 0.101833 11.4094L0.102263 11.4086L0.103396 11.4066L0.106748 11.4007L0.117799 11.3813C0.127094 11.3651 0.140246 11.3425 0.157235 11.3138C0.191207 11.2564 0.240556 11.1748 0.305115 11.0725C0.434172 10.8678 0.624379 10.5796 0.874442 10.2358C1.37368 9.5492 2.11635 8.63392 3.09293 7.71683C5.03961 5.88873 7.97603 4 11.8 4C15.624 4 18.5604 5.88873 20.5071 7.71683C21.4837 8.63392 22.2263 9.5492 22.7256 10.2358C22.9756 10.5796 23.1658 10.8678 23.2949 11.0725C23.3594 11.1748 23.4088 11.2564 23.4428 11.3138C23.4598 11.3425 23.4729 11.3651 23.4822 11.3813L23.4933 11.4007L23.4966 11.4066L23.4977 11.4086L23.4982 11.4094ZM22.8 11.8L23.4985 11.41C23.6338 11.6524 23.6338 11.9476 23.4985 12.19L22.8 11.8ZM0.101493 11.41L0.8 11.8L0.101493 12.19C-0.0338311 11.9476 -0.0338311 11.6524 0.101493 11.41ZM14.8 11.8C14.8 13.4569 13.4569 14.8 11.8 14.8C10.1431 14.8 8.8 13.4569 8.8 11.8C8.8 10.1431 10.1431 8.8 11.8 8.8C13.4569 8.8 14.8 10.1431 14.8 11.8Z" fill="currentColor" />
</g>
<defs>
<clipPath id="clip0_6006_805">
<rect width="24" height="24" fill="white"/>
</clipPath>
</defs>
</svg>
